<svg width="20" height="20" viewBox="0 0 20 20" fill="none" xmlns="http://www.w3.org/2000/svg">
<path fill-rule="evenodd" clip-rule="evenodd" d="M18.6 9C19.3732 9 20 9.6268 20 10.4V18.6C20 19.3732 19.3732 20 18.6 20H6.4C5.6268 20 5 19.3732 5 18.6V10.4C5 9.6268 5.6268 9 6.4 9H18.6ZM14.306 15.013L13.1783 16.0543C12.7952 16.4079 12.2048 16.4079 11.8217 16.0543L10.693 15.013L6.706 19H18.293L14.306 15.013ZM19 10.68L15.041 14.334L19 18.293V10.68ZM6 10.681V18.292L9.958 14.334L6 10.681ZM2.5 12C2.77614 12 3 12.2239 3 12.5C3 12.7761 2.77614 13 2.5 13H1.5C1.22386 13 1 13.2239 1 13.5V15.5C1 15.7761 1.22386 16 1.5 16H2.5C2.77614 16 3 16.2239 3 16.5C3 16.7761 2.77614 17 2.5 17H1.5C0.671573 17 0 16.3284 0 15.5V13.5C0 12.6716 0.671573 12 1.5 12H2.5ZM18.261 10H6.738L12.5 15.3195L18.261 10ZM2.5 14C2.77614 14 3 14.2239 3 14.5C3 14.7761 2.77614 15 2.5 15C2.22386 15 2 14.7761 2 14.5C2 14.2239 2.22386 14 2.5 14ZM16.5 6C16.7761 6 17 6.22386 17 6.5C17 6.77614 16.7761 7 16.5 7H1.5C1.22386 7 1 7.22386 1 7.5V9.5C1 9.77614 1.22386 10 1.5 10H2.5C2.77614 10 3 10.2239 3 10.5C3 10.7761 2.77614 11 2.5 11H1.5C0.671573 11 0 10.3284 0 9.5V7.5C0 6.67157 0.671573 6 1.5 6H16.5ZM2.5 8C2.77614 8 3 8.22386 3 8.5C3 8.77614 2.77614 9 2.5 9C2.22386 9 2 8.77614 2 8.5C2 8.22386 2.22386 8 2.5 8ZM15.5 0C16.3284 0 17 0.671573 17 1.5V3.5C17 4.32843 16.3284 5 15.5 5H1.5C0.671573 5 0 4.32843 0 3.5V1.5C0 0.671573 0.671573 0 1.5 0H15.5ZM15.5 1H1.5C1.25454 1 1.05039 1.17688 1.00806 1.41012L1 1.5V3.5C1 3.74546 1.17688 3.94961 1.41012 3.99194L1.5 4H15.5C15.7455 4 15.9496 3.82312 15.9919 3.58988L16 3.5V1.5C16 1.25454 15.8231 1.05039 15.5899 1.00806L15.5 1ZM2.5 2C2.77614 2 3 2.22386 3 2.5C3 2.77614 2.77614 3 2.5 3C2.22386 3 2 2.77614 2 2.5C2 2.22386 2.22386 2 2.5 2ZM4.5 2C4.77614 2 5 2.22386 5 2.5C5 2.77614 4.77614 3 4.5 3C4.22386 3 4 2.77614 4 2.5C4 2.22386 4.22386 2 4.5 2ZM6.5 2C6.77614 2 7 2.22386 7 2.5C7 2.77614 6.77614 3 6.5 3C6.22386 3 6 2.77614 6 2.5C6 2.22386 6.22386 2 6.5 2Z" fill="#566170"/>
</svg>
